<svg xmlns="http://www.w3.org/2000/svg" viewBox="0 0 24 24">
    <path fill="#222" fill-rule="evenodd" d="M20 1c1.104 0 2 .896 2 2v17c0 1.104-.896 2-2 2h-6.5v2h-3v-2H4c-1.104 0-2-.896-2-2V3c0-1.104.896-2 2-2zm-3 2H7c-1.104 0-2 .896-2 2v12c0 1.105.896 2 2 2v.5c0 .276.224.5.5.5h2c.276 0 .5-.224.5-.5V19h4v.5c0 .276.224.5.5.5h2c.276 0 .5-.224.5-.5V19c1.104 0 2-.895 2-2V5c0-1.104-.896-2-2-2zm-1 12c.552 0 1 .447 1 1 0 .552-.448 1-1 1s-1-.448-1-1c0-.553.448-1 1-1zm-8 0c.552 0 1 .447 1 1 0 .552-.448 1-1 1s-1-.448-1-1c0-.553.448-1 1-1zm8.688-10.938c.586 0 1.062.476 1.062 1.063v7.438c0 .586-.476 1.061-1.062 1.061H7.125c-.587 0-1.063-.475-1.063-1.062V5.127c0-.588.476-1.064 1.063-1.064h9.563z"/>
</svg>